PathFileType	4	(X/Y/Z)	..\data\2014015\dynamic\2014015_C4_04.trc
DataRate	CameraRate	NumFrames	NumMarkers	Units	OrigDataRate	OrigDataStartFrame	OrigNumFrames
100.000000	100.000000	4	52	mm	100.000000	95	190
Frame#	Time	L_IAS			L_IPS			R_IPS			R_IAS			L_FTC			L_FLE			L_FME			L_FAX			L_TTC			L_FAL			L_TAM			L_FCC			L_FM1			L_FM2			L_FM5			R_FTC			R_FLE			R_FME			R_FAX			R_TTC			R_FAL			R_TAM			R_FCC			R_FM1			R_FM2			R_FM5			CV7			TV10			SXS			SJN			L_SIA			L_SRS			L_SAA			L_SAE			L_HLE			L_HME			L_UOA			L_RSP			L_UHE			L_HM2			L_HM5			R_SIA			R_SRS			R_SAA			R_SAE			R_HLE			R_HME			R_UOA			R_RSP			R_UHE			R_HM2			R_HM5			
		X1	Y1	Z1	X2	Y2	Z2	X3	Y3	Z3	X4	Y4	Z4	X5	Y5	Z5	X6	Y6	Z6	X7	Y7	Z7	X8	Y8	Z8	X9	Y9	Z9	X10	Y10	Z10	X11	Y11	Z11	X12	Y12	Z12	X13	Y13	Z13	X14	Y14	Z14	X15	Y15	Z15	X16	Y16	Z16	X17	Y17	Z17	X18	Y18	Z18	X19	Y19	Z19	X20	Y20	Z20	X21	Y21	Z21	X22	Y22	Z22	X23	Y23	Z23	X24	Y24	Z24	X25	Y25	Z25	X26	Y26	Z26	X27	Y27	Z27	X28	Y28	Z28	X29	Y29	Z29	X30	Y30	Z30	X31	Y31	Z31	X32	Y32	Z32	X33	Y33	Z33	X34	Y34	Z34	X35	Y35	Z35	X36	Y36	Z36	X37	Y37	Z37	X38	Y38	Z38	X39	Y39	Z39	X40	Y40	Z40	X41	Y41	Z41	X42	Y42	Z42	X43	Y43	Z43	X44	Y44	Z44	X45	Y45	Z45	X46	Y46	Z46	X47	Y47	Z47	X48	Y48	Z48	X49	Y49	Z49	X50	Y50	Z50	X51	Y51	Z51	X52	Y52	Z52	

96	0.9500000000000001	742.8538208007814	841.2583007812502	-363.6465759277344	531.8211059570314	876.9508056640627	-255.3827362060547	538.9863891601564	881.1844482421877	-154.739990234375	768.4129638671877	847.0977172851565	-92.76622772216798	657.4516601562501	767.3111572265626	-405.7790527343751	748.0324096679689	435.4589233398439	-398.814666748047	777.8823852539065	415.7630310058595	-257.7178649902344	712.9406127929689	398.0419311523439	-402.0531311035157	778.6904907226565	369.8875122070313	-361.8965759277344	497.6138000488282	203.0821990966797	-337.0737304687501	537.6600341796876	190.4960632324219	-259.6450500488282	450.8029174804689	197.1943664550782	-285.9778137207032	573.7334594726564	67.98744201660158	-264.9330444335938	582.4317626953126	69.34914398193361	-318.7304992675782	538.1533813476564	84.17384338378908	-365.5400695800782	702.2215576171876	758.5487060546876	-36.83687210083009	707.7618408203126	418.0639953613282	-115.3065338134766	728.9442749023439	410.0967407226564	-255.4164733886719	709.3441772460939	363.6436462402344	-117.7351303100586	762.2958984375001	366.8283996582032	-179.3864898681641	669.5504150390626	58.14259338378908	-177.7974853515625	695.6942138671876	86.5208206176758	-261.6719970703126	632.1381225585939	23.12051010131836	-223.5890655517579	807.8892211914065	26.58358383178712	-272.1683349609376	825.2588500976565	39.37464904785157	-215.6639404296876	775.2796630859377	26.48740386962891	-161.6243133544922	609.4715576171876	1329.819213867188	-219.2321929931641	525.6696166992189	1136.171020507813	-225.108383178711	766.8346557617189	1031.596313476563	-235.2957000732422	726.3099975585939	1240.053344726563	-228.5024414062501	522.7452392578126	1165.570068359375	-300.0679321289063	573.2528076171876	1282.59228515625	-299.5491333007813	611.6569824218751	1283.768920898438	-365.3798828125001	671.2619018554689	1266.500854492188	-405.2417297363282	617.0326538085939	1003.053649902344	-463.7642822265626	586.2170410156251	986.1509399414065	-380.9606933593751	577.3375854492189	984.3027343750002	-430.5934448242189	678.4356689453126	791.3009033203127	-442.8398437500001	617.5231933593751	792.9475708007815	-493.4603881835939	698.9814453125001	702.1162109375001	-464.3857421875001	612.6168212890626	714.0615844726564	-502.391571044922	534.6114501953126	1156.706420898438	-117.6910705566407	582.6488647460939	1276.095825195313	-132.2908020019532	617.9356079101564	1270.3134765625	-72.77322387695314	697.2490844726564	1254.748413085938	-50.32956695556642	670.9961547851564	985.558288574219	24.15574455261231	610.1275634765626	977.548278808594	-55.82793426513673	619.0822143554689	969.4985961914065	1.392638325691223	748.4235839843751	785.7293090820315	-11.1207799911499	696.4765625000001	780.4218750000002	48.44081115722658	766.2002563476564	690.0735473632814	5.064176082611085	681.7725219726564	715.6234741210939	55.6440773010254	
97	0.96	751.8325195312501	842.886657714844	-363.2692260742188	540.7039794921876	877.5020141601565	-254.8906555175782	547.8859863281251	881.4985351562502	-154.4251861572266	777.0047607421877	847.7531738281252	-92.6399612426758	667.0525512695314	768.1668701171877	-405.5144348144532	765.9976806640626	437.883514404297	-397.8784179687501	795.0180664062502	418.7174377441407	-256.8903503417969	731.9131469726564	399.0822753906251	-401.1072692871095	798.212097167969	373.1366882324219	-360.7829284667969	523.4642333984376	195.9955596923829	-338.8470458984376	562.8147583007814	185.1852416992188	-260.9129943847657	475.6658935546876	187.7982788085938	-288.1337890625001	606.2638549804689	65.25009155273439	-267.2297363281251	615.2710571289064	68.00630950927736	-320.9106750488282	570.1887817382814	80.26315307617189	-367.5853271484376	710.6600952148439	758.6584472656251	-36.89800262451173	711.5204467773439	417.9545288085939	-115.4478378295899	732.4934692382814	409.5740661621095	-255.0608062744141	712.4257202148439	363.4309997558594	-117.9092025756836	765.3768310546876	366.2145690917969	-179.5026245117188	669.8059692382814	58.22737503051759	-177.9931335449219	696.2915649414064	86.74058532714845	-261.8829040527344	632.1604614257814	23.40281105041504	-223.7954711914063	808.025573730469	26.44011116027833	-272.0839538574219	825.5625000000002	39.18516540527344	-215.6088104248047	775.1988525390627	26.42311477661134	-161.5044708251953	618.9359741210939	1330.381225585938	-218.6548004150391	534.3998413085939	1137.017822265625	-224.4006500244141	775.6448364257815	1032.010864257813	-235.2388305664063	735.5319213867189	1240.41943359375	-228.1719512939454	531.8209228515626	1166.236083984375	-299.2084045410157	582.4589233398439	1283.1796875	-298.8575439453126	620.6554565429689	1284.355346679688	-364.7428894042969	680.0855712890626	1267.00390625	-404.8227844238282	624.3668823242189	1004.019897460938	-463.6722106933595	593.9727172851564	987.0789184570315	-380.7390441894532	584.8254394531251	985.4135742187502	-430.3314208984376	684.4916381835939	791.8764648437502	-443.921600341797	623.4436035156251	794.0141601562502	-493.9909057617189	704.7534790039064	702.7282104492189	-465.8603515625001	618.1502685546876	715.1377563476564	-503.1830444335939	543.9863891601564	1157.394897460938	-116.9900588989258	592.0914306640626	1276.717041015625	-131.7264556884766	627.3941040039064	1270.907592773438	-72.27230072021486	706.6575927734376	1255.357788085938	-49.87408828735353	680.6556396484376	986.0942993164065	24.58682250976563	620.0361328125001	978.0171508789065	-55.48880004882814	628.8379516601564	969.8538208007815	1.762025475502015	759.3012084960939	786.8989868164065	-10.92727184295654	707.0641479492189	781.039978027344	48.40282440185548	777.030456542969	690.9678344726564	4.910758495330811	692.6394653320314	716.2020874023439	55.69868087768556	
98	0.97	760.9358520507814	844.2988891601565	-362.6336059570313	549.5892333984376	877.851989746094	-254.7315368652344	556.7043457031251	881.683288574219	-154.294921875	785.5338134765627	848.3056640625002	-92.69299316406251	676.8648071289064	768.9311523437502	-405.4079589843751	783.3538818359377	440.2156677246095	-396.7883300781251	811.8774414062502	421.4614257812501	-256.0184020996094	750.3020019531251	399.9585876464845	-400.0438232421876	817.1877441406252	376.3865051269532	-359.5714721679688	549.8540039062501	188.1924896240235	-340.5607604980469	588.4082031250001	179.1634826660157	-262.1885070800782	501.283172607422	177.6368408203125	-290.2775573730469	639.0140991210939	62.26981735229494	-269.2706298828126	648.1868286132814	66.28733062744142	-322.8401489257813	602.4482421875001	75.97475433349611	-369.4530029296876	719.1295166015626	758.7757568359376	-36.9343376159668	715.1941528320314	417.8058166503907	-115.6128463745117	736.2532958984376	409.0455322265626	-254.6912994384766	715.4628906250001	363.2122802734376	-118.1069030761719	768.4715576171877	365.5827636718751	-179.6106414794922	670.0609130859376	58.34490203857423	-178.2074890136719	696.8675537109376	86.91716766357423	-262.0895996093751	632.2077026367189	23.69585227966309	-224.0233764648438	808.1387329101565	26.27169990539551	-272.0047607421876	825.8923339843752	38.99530792236329	-215.5618743896485	775.1230468750002	26.37475585937501	-161.3992767333985	628.3574829101564	1330.822998046875	-218.0912780761719	543.0964965820314	1137.744018554688	-223.7384643554688	784.413513183594	1032.362670898438	-235.177719116211	744.7136230468751	1240.687133789063	-227.8725585937501	540.8495483398439	1166.795043945313	-298.4021301269532	591.6185913085939	1283.658935546875	-298.1867370605469	629.6148681640626	1284.831665039063	-364.1275024414063	688.9005737304689	1267.397827148438	-404.4094238281251	631.7711791992189	1004.885559082031	-463.5913391113282	601.7338867187501	987.8950805664065	-380.5516967773438	592.3556518554689	986.4172973632815	-430.0920715332032	690.5638427734376	792.345642089844	-445.0126953125001	629.3670043945314	794.9808349609377	-494.5231933593751	710.4906616210939	703.2201538085939	-467.3235168457032	623.6662597656251	716.1326293945314	-503.9661865234376	553.2991333007814	1157.959838867188	-116.3337173461914	601.4773559570314	1277.2099609375	-131.1898803710938	636.8004760742189	1271.37939453125	-71.79495239257814	716.0018310546876	1255.851196289063	-49.42528152465822	690.1917724609376	986.5103759765627	25.05526733398438	629.8277587890626	978.392272949219	-55.110652923584	638.4858398437501	970.0920410156252	2.16123366355896	769.5980224609377	787.8199462890627	-11.04104804992676	717.5375366210939	781.4927978515627	48.26062011718751	787.6990356445315	691.7368774414064	4.508875846862794	703.3773803710939	716.5999755859376	55.58140182495119	
99	0.98	770.1724853515627	845.4572753906252	-361.7874755859376	558.4821777343751	877.9920043945315	-254.9039459228516	565.4435424804689	881.7370605468752	-154.3592071533203	794.0132446289065	848.6956787109377	-92.87410736083986	686.9042968750001	769.5936279296877	-405.4471740722657	800.0596923828127	442.4046630859376	-395.5610351562501	828.3437500000002	424.028045654297	-255.0697784423829	768.0886230468752	400.642059326172	-398.8735961914064	835.563171386719	379.5869750976563	-358.2599792480469	576.7448120117189	179.7986297607422	-342.1680603027344	614.4473876953126	172.5377349853516	-263.4333190917969	527.6564331054689	166.8279876708985	-292.3512573242188	671.9487304687501	59.12475204467775	-271.0615844726563	681.1571655273439	64.28438568115236	-324.5332641601563	634.9378662109376	71.44009399414064	-371.1470031738282	727.5986328125001	758.8792114257814	-36.94565200805665	718.7952270507814	417.6198730468751	-115.8012313842774	740.2101440429689	408.5057067871095	-254.3497619628907	718.4645385742189	362.9878540039063	-118.3281478881836	771.583190917969	364.9251098632813	-179.7126159667969	670.3194580078126	58.49867630004884	-178.4389801025391	697.4167480468751	87.04719543457033	-262.2976989746094	632.2835083007814	23.99610137939453	-224.2772827148438	808.232116699219	26.07536506652833	-271.9328002929688	826.2442016601565	38.80281829833985	-215.5235748291016	775.0584716796877	26.34063911437989	-161.3160705566407	637.7370605468751	1331.141235351563	-217.5418853759766	551.7938232421876	1138.333251953125	-223.1189880371094	793.1467895507815	1032.634765625	-235.1148223876954	753.8576660156251	1240.8544921875	-227.6034393310547	549.8352661132814	1167.239624023438	-297.6474914550782	600.7310180664064	1284.02490234375	-297.5354309082032	638.5366821289064	1285.191650390625	-363.5361938476563	697.6983032226564	1267.680053710938	-404.0067138671876	639.2569580078126	1005.638793945313	-463.5178222656251	609.5149536132814	988.5896606445315	-380.3935852050782	599.9401245117189	987.3039550781252	-429.8695678710939	696.6810302734376	792.701354980469	-446.1002197265626	635.3105468750001	795.838317871094	-495.0518798828126	716.1992797851564	703.5797729492189	-468.7641906738282	629.1777343750001	717.0405273437501	-504.7393798828126	562.5560913085939	1158.3994140625	-115.7198028564453	610.8155517578126	1277.572265625	-130.6781005859375	646.1676025390626	1271.722290039063	-71.33914947509767	725.3026733398439	1256.214721679688	-48.99230575561525	699.6384277343751	986.8002929687502	25.55104637145997	639.4927978515626	978.6662597656252	-54.68138122558595	648.0477294921876	970.211608886719	2.596527099609375	779.4205322265627	788.5074462890627	-11.40351867675781	727.9080200195314	781.7740478515627	48.02867126464845	798.2164306640627	692.3712768554689	3.877533435821534	713.9887084960939	716.8126220703126	55.30137634277345	
